<?xml version="1.0" encoding="UTF-8" standalone="no"?>
<!-- Created with Inkscape (http://www.inkscape.org/) -->

<svg
   width="134.29338"
   height="31.927767"
   viewBox="0 0 134.29338 31.927767"
   version="1.1"
   id="svg1"
   xml:space="preserve"
   inkscape:version="1.3.2 (091e20e, 2023-11-25, custom)"
   sodipodi:docname="grizzl_logo_with_text_black.svg"
   xmlns:inkscape="http://www.inkscape.org/namespaces/inkscape"
   xmlns:sodipodi="http://sodipodi.sourceforge.net/DTD/sodipodi-0.dtd"
   xmlns="http://www.w3.org/2000/svg"
   xmlns:svg="http://www.w3.org/2000/svg"><sodipodi:namedview
     id="namedview1"
     pagecolor="#505050"
     bordercolor="#eeeeee"
     borderopacity="1"
     inkscape:showpageshadow="0"
     inkscape:pageopacity="0"
     inkscape:pagecheckerboard="0"
     inkscape:deskcolor="#505050"
     inkscape:document-units="mm"
     inkscape:zoom="1.0885714"
     inkscape:cx="-3.2152232"
     inkscape:cy="-34.44882"
     inkscape:window-width="1920"
     inkscape:window-height="1009"
     inkscape:window-x="-8"
     inkscape:window-y="-8"
     inkscape:window-maximized="1"
     inkscape:current-layer="layer1" /><defs
     id="defs1"><inkscape:perspective
       sodipodi:type="inkscape:persp3d"
       inkscape:vp_x="0 : -529.33212 : 1"
       inkscape:vp_y="0 : 3779.5275 : 0"
       inkscape:vp_z="793.70075 : -529.33212 : 1"
       inkscape:persp3d-origin="396.85036 : -716.4187 : 1"
       id="perspective43" /><style
       id="style1">.cls-1{fill:#3cc;}</style></defs><g
     inkscape:label="Layer 1"
     inkscape:groupmode="layer"
     id="layer1"
     transform="translate(-347.13608,-132.58598)"><path
       style="font-weight:300;font-size:25.4px;font-family:Jost;-inkscape-font-specification:'Jost Light';letter-spacing:3.96875px;stroke-linecap:round;stroke-linejoin:round;paint-order:stroke fill markers"
       d="m 395.24088,149.89606 h 6.3754 q -0.127,1.2954 -0.6604,2.4384 -0.5334,1.143 -1.4224,2.032 -0.8636,0.889 -2.0574,1.397 -1.1938,0.508 -2.6924,0.508 -2.1082,0 -3.7846,-0.9906 -1.651,-0.9906 -2.6416,-2.7178 -0.9652,-1.7526 -0.9652,-4.0132 0,-2.286 0.9652,-4.0132 0.9906,-1.7272 2.667,-2.7178 1.6764,-0.9906 3.7592,-0.9906 2.159,0 3.7592,0.9144 1.6002,0.9144 2.4892,2.3876 l 1.016,-0.889 q -0.762,-1.1938 -1.8288,-2.032 -1.0668,-0.8636 -2.4384,-1.3208 -1.3462,-0.4572 -2.9972,-0.4572 -1.905,0 -3.5306,0.6858 -1.6002,0.6604 -2.8194,1.8796 -1.1938,1.2192 -1.8542,2.8956 -0.6604,1.6764 -0.6604,3.6576 0,1.9812 0.6604,3.6576 0.6604,1.6764 1.8542,2.8956 1.2192,1.2192 2.8194,1.905 1.6256,0.6604 3.5306,0.6604 1.9558,0 3.5052,-0.7366 1.5494,-0.7366 2.6416,-2.0066 1.0922,-1.27 1.651,-2.8956 0.5588,-1.651 0.5588,-3.4544 h -7.8994 z m 18.26895,-0.9398 5.8928,8.4836 h 1.7272 l -6.0706,-8.4836 z m -3.0226,-9.2964 v 17.78 h 1.397 v -17.78 z m 0.7366,1.2446 h 3.3274 q 1.3462,0 2.3876,0.4572 1.0414,0.4572 1.6256,1.3208 0.6096,0.8636 0.6096,2.1336 0,1.27 -0.5842,2.159 -0.5842,0.8636 -1.651,1.3208 -1.0414,0.4318 -2.3876,0.4318 h -3.3274 v 1.2446 h 3.3274 q 1.7272,0 3.0734,-0.5842 1.3716,-0.6096 2.159,-1.778 0.7874,-1.1684 0.7874,-2.794 0,-1.651 -0.7874,-2.794 -0.7874,-1.143 -2.159,-1.7526 -1.3462,-0.6096 -3.0734,-0.6096 h -3.3274 z m 16.46557,-1.2446 v 17.78 h 1.397 v -17.78 z m 8.38834,1.3208 h 9.9568 l -10.4648,16.4592 h 12.446 v -1.3208 h -10.0584 l 10.4648,-16.4592 h -12.3444 z m 17.71017,0 h 9.9568 l -10.4648,16.4592 h 12.446 v -1.3208 h -10.0584 l 10.4648,-16.4592 h -12.3444 z m 18.90396,-1.3208 v 17.78 h 8.7376 v -1.3208 h -7.3406 v -16.4592 z"
       id="text22"
       aria-label="GRIZZL" /><g
       id="g9"
       transform="translate(74.589764,69.434005)"><path
         id="path7"
         style="fill:#000000;stroke-width:0.729781;stroke-linecap:round;stroke-linejoin:round;paint-order:stroke fill markers"
         d="m 278.10567,63.151975 a 5.559783,5.559783 0 0 0 -5.55935,5.559868 5.559783,5.559783 0 0 0 1.45883,3.74189 15.963959,15.963959 0 0 0 -1.45883,6.662126 15.963959,15.963959 0 0 0 15.96389,15.963883 15.963959,15.963959 0 0 0 15.96388,-15.963883 15.963959,15.963959 0 0 0 -1.45934,-6.662126 5.559783,5.559783 0 0 0 1.45934,-3.74189 5.559783,5.559783 0 0 0 -5.55987,-5.559868 5.559783,5.559783 0 0 0 -3.74241,1.459343 15.963959,15.963959 0 0 0 -6.6616,-1.459343 15.963959,15.963959 0 0 0 -6.65438,1.455209 5.559783,5.559783 0 0 0 -3.75016,-1.455209 z m 10.40454,8.702311 c 5.57972,0 12.08954,11.274845 9.29969,16.107028 -2.78987,4.832182 -15.80952,4.832182 -18.59939,0 -2.78985,-4.832183 3.71997,-16.107028 9.2997,-16.107028 z" /><path
         sodipodi:type="star"
         style="fill:#000000;stroke-width:1;stroke-linecap:round;stroke-linejoin:round;paint-order:stroke fill markers"
         id="path8"
         inkscape:flatsided="true"
         sodipodi:sides="3"
         sodipodi:cx="-481.36484"
         sodipodi:cy="-198.4252"
         sodipodi:r1="83.069206"
         sodipodi:r2="41.534603"
         sodipodi:arg1="-0.52359878"
         sodipodi:arg2="0.52359878"
         inkscape:rounded="0.3"
         inkscape:randomized="0"
         d="m -409.42479,-239.9598 c 21.58201,37.38114 -28.77602,124.6038 -71.94005,124.6038 -43.16402,10e-6 -93.52205,-87.22266 -71.94004,-124.6038 21.58201,-37.38115 122.29807,-37.38115 143.88009,0 z"
         transform="matrix(0.0646353,0,0,0.0646353,319.62325,93.490618)"
         inkscape:transform-center-y="1.0116207" /></g></g></svg>
