<svg xmlns="http://www.w3.org/2000/svg" version="1.1" xmlns:xlink="http://www.w3.org/1999/xlink" width="1000" height="1000"><style>
    #light-icon {
      display: inline;
    }
    #dark-icon {
      display: none;
    }

    @media (prefers-color-scheme: dark) {
      #light-icon {
        display: none;
      }
      #dark-icon {
        display: inline;
      }
    }
  </style><g id="light-icon"><svg xmlns="http://www.w3.org/2000/svg" version="1.1" xmlns:xlink="http://www.w3.org/1999/xlink" width="1000" height="1000"><g><g transform="matrix(31.320695704062775,0,0,31.320695704062775,0,0.00006264139136646918)"><svg xmlns="http://www.w3.org/2000/svg" version="1.1" xmlns:xlink="http://www.w3.org/1999/xlink" width="31.927771" height="31.927767"><svg width="31.927771" height="31.927767" viewBox="0 0 31.927771 31.927767" version="1.1" id="svg1" xml:space="preserve" inkscape:version="1.3.2 (091e20e, 2023-11-25, custom)" sodipodi:docname="grizzl_logo_black.svg" xmlns:inkscape="http://www.inkscape.org/namespaces/inkscape" xmlns:sodipodi="http://sodipodi.sourceforge.net/DTD/sodipodi-0.dtd" xmlns="http://www.w3.org/2000/svg" xmlns:svg="http://www.w3.org/2000/svg"><sodipodi:namedview id="namedview1" pagecolor="#505050" bordercolor="#eeeeee" borderopacity="1" inkscape:showpageshadow="0" inkscape:pageopacity="0" inkscape:pagecheckerboard="0" inkscape:deskcolor="#505050" inkscape:document-units="mm" inkscape:zoom="8.7085712" inkscape:cx="4.5357613" inkscape:cy="18.889436" inkscape:window-width="1920" inkscape:window-height="1009" inkscape:window-x="-8" inkscape:window-y="-8" inkscape:window-maximized="1" inkscape:current-layer="layer1"></sodipodi:namedview><defs id="defs1"><inkscape:perspective sodipodi:type="inkscape:persp3d" inkscape:vp_x="0 : -529.33212 : 1" inkscape:vp_y="0 : 3779.5275 : 0" inkscape:vp_z="793.70076 : -529.33212 : 1" inkscape:persp3d-origin="396.85033 : -716.4187 : 1" id="perspective43"></inkscape:perspective><style id="style1">.cls-1{fill:#3cc;}</style></defs><g inkscape:label="Layer 1" inkscape:groupmode="layer" id="layer1" transform="translate(-252.60965,-93.400478)"><g id="g9" transform="translate(-19.936666,30.248503)"><path id="path7" style="fill:#000000;stroke-width:0.729781;stroke-linecap:round;stroke-linejoin:round;paint-order:stroke fill markers" d="m 278.10567,63.151975 a 5.559783,5.559783 0 0 0 -5.55935,5.559868 5.559783,5.559783 0 0 0 1.45883,3.74189 15.963959,15.963959 0 0 0 -1.45883,6.662126 15.963959,15.963959 0 0 0 15.96389,15.963883 15.963959,15.963959 0 0 0 15.96388,-15.963883 15.963959,15.963959 0 0 0 -1.45934,-6.662126 5.559783,5.559783 0 0 0 1.45934,-3.74189 5.559783,5.559783 0 0 0 -5.55987,-5.559868 5.559783,5.559783 0 0 0 -3.74241,1.459343 15.963959,15.963959 0 0 0 -6.6616,-1.459343 15.963959,15.963959 0 0 0 -6.65438,1.455209 5.559783,5.559783 0 0 0 -3.75016,-1.455209 z m 10.40454,8.702311 c 5.57972,0 12.08954,11.274845 9.29969,16.107028 -2.78987,4.832182 -15.80952,4.832182 -18.59939,0 -2.78985,-4.832183 3.71997,-16.107028 9.2997,-16.107028 z"></path><path sodipodi:type="star" style="fill:#000000;stroke-width:1;stroke-linecap:round;stroke-linejoin:round;paint-order:stroke fill markers" id="path8" inkscape:flatsided="true" sodipodi:sides="3" sodipodi:cx="-481.36484" sodipodi:cy="-198.4252" sodipodi:r1="83.069206" sodipodi:r2="41.534603" sodipodi:arg1="-0.52359878" sodipodi:arg2="0.52359878" inkscape:rounded="0.3" inkscape:randomized="0" d="m -409.42479,-239.9598 c 21.58201,37.38114 -28.77602,124.6038 -71.94005,124.6038 -43.16402,10e-6 -93.52205,-87.22266 -71.94004,-124.6038 21.58201,-37.38115 122.29807,-37.38115 143.88009,0 z" transform="matrix(0.0646353,0,0,0.0646353,319.62325,93.490618)" inkscape:transform-center-y="1.0116207"></path></g></g></svg></svg></g></g></svg></g><g id="dark-icon"><svg xmlns="http://www.w3.org/2000/svg" version="1.1" xmlns:xlink="http://www.w3.org/1999/xlink" width="1000" height="1000"><g><g transform="matrix(31.320695704062775,0,0,31.320695704062775,0,0.00006264139136646918)"><svg xmlns="http://www.w3.org/2000/svg" version="1.1" xmlns:xlink="http://www.w3.org/1999/xlink" width="31.927771" height="31.927767"><svg width="31.927771" height="31.927767" viewBox="0 0 31.927771 31.927767" version="1.1" id="svg1" xml:space="preserve" inkscape:version="1.3.2 (091e20e, 2023-11-25, custom)" sodipodi:docname="grizzl_logo_white.svg" xmlns:inkscape="http://www.inkscape.org/namespaces/inkscape" xmlns:sodipodi="http://sodipodi.sourceforge.net/DTD/sodipodi-0.dtd" xmlns="http://www.w3.org/2000/svg" xmlns:svg="http://www.w3.org/2000/svg"><sodipodi:namedview id="namedview1" pagecolor="#505050" bordercolor="#eeeeee" borderopacity="1" inkscape:showpageshadow="0" inkscape:pageopacity="0" inkscape:pagecheckerboard="0" inkscape:deskcolor="#505050" inkscape:document-units="mm" inkscape:zoom="12.315779" inkscape:cx="24.967969" inkscape:cy="25.130362" inkscape:window-width="1920" inkscape:window-height="1009" inkscape:window-x="-8" inkscape:window-y="-8" inkscape:window-maximized="1" inkscape:current-layer="layer1"></sodipodi:namedview><defs id="defs1"><inkscape:perspective sodipodi:type="inkscape:persp3d" inkscape:vp_x="0 : -529.33212 : 1" inkscape:vp_y="0 : 3779.5275 : 0" inkscape:vp_z="793.70076 : -529.33212 : 1" inkscape:persp3d-origin="396.85033 : -716.4187 : 1" id="perspective43"></inkscape:perspective><style id="style1">.cls-1{fill:#3cc;}</style></defs><g inkscape:label="Layer 1" inkscape:groupmode="layer" id="layer1" transform="translate(-347.13608,-132.58598)"><g id="g9" transform="translate(74.589764,69.434005)" style="fill:#ffffff"><path id="path7" style="fill:#ffffff;stroke-width:0.729781;stroke-linecap:round;stroke-linejoin:round;paint-order:stroke fill markers" d="m 278.10567,63.151975 a 5.559783,5.559783 0 0 0 -5.55935,5.559868 5.559783,5.559783 0 0 0 1.45883,3.74189 15.963959,15.963959 0 0 0 -1.45883,6.662126 15.963959,15.963959 0 0 0 15.96389,15.963883 15.963959,15.963959 0 0 0 15.96388,-15.963883 15.963959,15.963959 0 0 0 -1.45934,-6.662126 5.559783,5.559783 0 0 0 1.45934,-3.74189 5.559783,5.559783 0 0 0 -5.55987,-5.559868 5.559783,5.559783 0 0 0 -3.74241,1.459343 15.963959,15.963959 0 0 0 -6.6616,-1.459343 15.963959,15.963959 0 0 0 -6.65438,1.455209 5.559783,5.559783 0 0 0 -3.75016,-1.455209 z m 10.40454,8.702311 c 5.57972,0 12.08954,11.274845 9.29969,16.107028 -2.78987,4.832182 -15.80952,4.832182 -18.59939,0 -2.78985,-4.832183 3.71997,-16.107028 9.2997,-16.107028 z"></path><path sodipodi:type="star" style="fill:#ffffff;stroke-width:1;stroke-linecap:round;stroke-linejoin:round;paint-order:stroke fill markers" id="path8" inkscape:flatsided="true" sodipodi:sides="3" sodipodi:cx="-481.36484" sodipodi:cy="-198.4252" sodipodi:r1="83.069206" sodipodi:r2="41.534603" sodipodi:arg1="-0.52359878" sodipodi:arg2="0.52359878" inkscape:rounded="0.3" inkscape:randomized="0" d="m -409.42479,-239.9598 c 21.58201,37.38114 -28.77602,124.6038 -71.94005,124.6038 -43.16402,10e-6 -93.52205,-87.22266 -71.94004,-124.6038 21.58201,-37.38115 122.29807,-37.38115 143.88009,0 z" transform="matrix(0.0646353,0,0,0.0646353,319.62325,93.490618)" inkscape:transform-center-y="1.0116207"></path></g></g></svg></svg></g></g></svg></g></svg>